<?xml version="1.0" encoding="iso-8859-1"?>
<!-- Generator: Adobe Illustrator 19.0.0, SVG Export Plug-In . SVG Version: 6.00 Build 0)  -->
<svg version="1.1" id="Capa_1" xmlns="http://www.w3.org/2000/svg" xmlns:xlink="http://www.w3.org/1999/xlink" x="0px" y="0px"
	 viewBox="0 0 480 480" style="enable-background:new 0 0 480 480;" xml:space="preserve">
<g>
	<rect x="48" y="120" style="fill:#B3DDDC;" width="64" height="208"/>
	<rect x="368" y="120" style="fill:#B3DDDC;" width="64" height="208"/>
</g>
<path style="fill:#FAF2B9;" d="M416,456c0,4.416,3.584,8,8,8s8-3.584,8-8v-32h-16V456z"/>
<g>
	<polygon style="fill:#B3DDDC;" points="368,408 408,408 432,408 432,344 368,344 	"/>
	<rect x="208" y="344" style="fill:#B3DDDC;" width="64" height="64"/>
	<rect x="288" y="344" style="fill:#B3DDDC;" width="64" height="64"/>
	<rect x="128" y="344" style="fill:#B3DDDC;" width="64" height="64"/>
</g>
<path style="fill:#FAF2B9;" d="M48,456c0,4.416,3.584,8,8,8s8-3.584,8-8v-32H48V456z"/>
<g>
	<polygon style="fill:#B3DDDC;" points="48,408 72,408 112,408 112,344 48,344 	"/>
	<rect x="128" y="120" style="fill:#B3DDDC;" width="64" height="208"/>
</g>
<circle style="fill:#FAF2B9;" cx="40" cy="40" r="24"/>
<g>
	<rect x="208" y="120" style="fill:#B3DDDC;" width="64" height="208"/>
	<rect x="288" y="120" style="fill:#B3DDDC;" width="64" height="208"/>
</g>
<circle style="fill:#FAF2B9;" cx="440" cy="40" r="24"/>
<path style="fill:#725444;" d="M480,40c0-22.056-17.944-40-40-40s-40,17.944-40,40c0,19.312,13.768,35.472,32,39.192V104H48V79.192
	C66.232,75.472,80,59.32,80,40C80,17.944,62.056,0,40,0S0,17.944,0,40c0,19.312,13.768,35.472,32,39.192V112v304v40
	c0,13.232,10.768,24,24,24s24-10.768,24-24v-32h320v32c0,13.232,10.768,24,24,24s24-10.768,24-24v-40V112V79.192
	C466.232,75.472,480,59.312,480,40z M368,408v-64h64v64h-24H368z M72,408H48v-64h64v64H72z M272,328h-64V120h64V328z M288,120h64
	v208h-64V120z M192,328h-64V120h64V328z M112,328H48V120h64V328z M128,344h64v64h-64V344z M208,344h64v64h-64V344z M288,344h64v64
	h-64V344z M432,328h-64V120h64V328z M16,40c0-13.232,10.768-24,24-24s24,10.768,24,24S53.232,64,40,64S16,53.232,16,40z M64,456
	c0,4.416-3.584,8-8,8s-8-3.584-8-8v-32h16V456z M432,456c0,4.416-3.584,8-8,8s-8-3.584-8-8v-32h16V456z M440,64
	c-13.232,0-24-10.768-24-24s10.768-24,24-24s24,10.768,24,24S453.232,64,440,64z"/>
<g>
</g>
<g>
</g>
<g>
</g>
<g>
</g>
<g>
</g>
<g>
</g>
<g>
</g>
<g>
</g>
<g>
</g>
<g>
</g>
<g>
</g>
<g>
</g>
<g>
</g>
<g>
</g>
<g>
</g>
</svg>
