<?xml version="1.0" encoding="iso-8859-1"?>
<!-- Generator: Adobe Illustrator 19.0.0, SVG Export Plug-In . SVG Version: 6.00 Build 0)  -->
<svg version="1.1" id="Layer_1" xmlns="http://www.w3.org/2000/svg" xmlns:xlink="http://www.w3.org/1999/xlink" x="0px" y="0px"
	 viewBox="0 0 511.999 511.999" style="enable-background:new 0 0 511.999 511.999;" xml:space="preserve">
<rect style="fill:#FCB5B5;" width="511.999" height="511.999"/>
<g>
	<path style="fill:#000030;" d="M465.902,243.087c-5.492-7.778-11.892-14.921-19.025-21.241c-0.018-0.017-0.034-0.031-0.052-0.047
		c-0.043-0.038-0.083-0.077-0.126-0.114c-0.078-0.069-0.162-0.127-0.242-0.193c-0.148-0.122-0.295-0.245-0.448-0.357
		c-0.113-0.082-0.229-0.156-0.344-0.233c-0.146-0.097-0.292-0.197-0.442-0.284c-0.137-0.082-0.28-0.154-0.421-0.229
		c-0.132-0.069-0.262-0.14-0.396-0.201c-0.165-0.077-0.333-0.143-0.501-0.211c-0.115-0.046-0.23-0.095-0.346-0.136
		c-0.186-0.065-0.375-0.122-0.564-0.175c-0.104-0.03-0.207-0.062-0.312-0.088c-0.199-0.05-0.401-0.089-0.602-0.126
		c-0.1-0.018-0.198-0.038-0.297-0.053c-0.204-0.031-0.409-0.051-0.614-0.068c-0.101-0.008-0.202-0.019-0.302-0.024
		c-0.203-0.011-0.404-0.011-0.607-0.008c-0.105,0.001-0.211,0-0.316,0.005c-0.198,0.008-0.393,0.027-0.59,0.047
		c-0.11,0.012-0.22,0.021-0.331,0.037c-0.193,0.027-0.385,0.064-0.577,0.104c-0.109,0.023-0.219,0.041-0.327,0.069
		c-0.196,0.046-0.389,0.104-0.581,0.164c-0.101,0.032-0.203,0.06-0.302,0.095c-0.203,0.069-0.401,0.151-0.599,0.233
		c-0.087,0.037-0.173,0.07-0.258,0.109c-0.211,0.096-0.418,0.205-0.623,0.318c-0.068,0.038-0.136,0.071-0.204,0.11
		c-0.218,0.127-0.43,0.265-0.639,0.411c-0.052,0.036-0.105,0.069-0.156,0.105c-0.211,0.153-0.414,0.318-0.613,0.488
		c-0.039,0.033-0.081,0.062-0.12,0.095c-8.346,7.375-17.6,13.165-27.368,17.4c-0.159,0.068-0.318,0.136-0.475,0.215
		c-20.154,8.616-42.477,10.575-63.618,5.87c-0.091-0.02-0.182-0.043-0.276-0.06c-10.34-2.33-20.388-6.265-29.759-11.785
		c-0.193-0.12-0.389-0.235-0.591-0.343c-5.406-3.232-10.58-6.996-15.448-11.298c-3.964-3.502-10.017-3.129-13.518,0.834
		c-3.502,3.963-3.129,10.016,0.834,13.518c3.648,3.224,7.443,6.194,11.359,8.911c-2.533,4.786-5.426,9.38-8.665,13.714
		c-3.166,4.237-2.298,10.239,1.939,13.406c1.721,1.285,3.732,1.906,5.726,1.906c2.917,0,5.799-1.329,7.68-3.845
		c3.674-4.916,6.976-10.113,9.883-15.522c5.894,2.843,11.967,5.192,18.157,7.041c-0.929,5.337-2.261,10.603-4.004,15.726
		c-1.702,5.009,0.978,10.449,5.985,12.15c1.022,0.347,2.061,0.512,3.084,0.512c3.988,0,7.711-2.511,9.067-6.497
		c1.979-5.822,3.516-11.795,4.609-17.85c5.517,0.748,11.074,1.125,16.633,1.125c0.934,0,1.868-0.011,2.802-0.033
		c0.768,5.37,1.128,10.798,1.056,16.219c-0.071,5.289,4.159,9.634,9.447,9.705c0.044,0.001,0.088,0.001,0.132,0.001
		c5.228,0,9.503-4.203,9.574-9.448c0.083-6.146-0.3-12.301-1.132-18.394c6.372-1.144,12.671-2.795,18.833-4.948
		c2.385,4.864,4.401,9.907,6.003,15.074c1.274,4.109,5.058,6.744,9.145,6.744c0.939,0,1.895-0.139,2.839-0.433
		c5.052-1.567,7.878-6.932,6.312-11.983c-1.817-5.861-4.079-11.588-6.748-17.121c5.664-3.042,11.138-6.56,16.366-10.553
		c3.772,3.889,7.249,8.063,10.37,12.484c1.866,2.643,4.826,4.055,7.832,4.055c1.909,0,3.838-0.57,5.516-1.754
		C467.924,253.384,468.954,247.408,465.902,243.087z"/>
	<path style="fill:#000030;" d="M215.511,221.691c-4.869,4.301-10.044,8.066-15.451,11.3c-0.199,0.104-0.392,0.218-0.581,0.335
		c-9.375,5.524-19.428,9.46-29.772,11.791c-0.087,0.017-0.171,0.037-0.256,0.055c-21.146,4.709-43.477,2.751-63.637-5.87
		c-0.152-0.073-0.306-0.142-0.46-0.207c-9.771-4.235-19.028-10.025-27.378-17.403c-0.038-0.034-0.081-0.062-0.12-0.095
		c-0.199-0.171-0.401-0.335-0.61-0.486c-0.055-0.04-0.111-0.075-0.167-0.114c-0.206-0.142-0.414-0.28-0.628-0.404
		c-0.072-0.041-0.146-0.078-0.218-0.119c-0.2-0.109-0.401-0.216-0.606-0.309c-0.094-0.043-0.188-0.079-0.283-0.119
		c-0.19-0.079-0.379-0.158-0.572-0.224c-0.109-0.038-0.22-0.07-0.332-0.104c-0.183-0.056-0.365-0.11-0.551-0.155
		c-0.119-0.03-0.238-0.051-0.358-0.075c-0.183-0.037-0.364-0.072-0.548-0.098c-0.12-0.017-0.239-0.027-0.359-0.039
		c-0.187-0.019-0.373-0.037-0.561-0.046c-0.115-0.006-0.231-0.005-0.346-0.006c-0.192-0.001-0.384-0.001-0.576,0.008
		c-0.11,0.006-0.22,0.017-0.331,0.027c-0.196,0.015-0.391,0.036-0.587,0.065c-0.108,0.015-0.216,0.037-0.322,0.057
		c-0.193,0.036-0.386,0.073-0.578,0.121c-0.111,0.028-0.223,0.062-0.333,0.094c-0.183,0.052-0.364,0.105-0.543,0.169
		c-0.123,0.043-0.245,0.095-0.367,0.143c-0.162,0.064-0.324,0.129-0.482,0.203c-0.139,0.064-0.275,0.137-0.411,0.21
		c-0.137,0.072-0.274,0.141-0.408,0.22c-0.153,0.091-0.302,0.191-0.45,0.29c-0.113,0.075-0.226,0.147-0.337,0.228
		c-0.155,0.114-0.303,0.238-0.453,0.361c-0.079,0.065-0.162,0.122-0.239,0.191c-0.041,0.038-0.083,0.076-0.124,0.113
		c-0.018,0.015-0.034,0.032-0.052,0.047c-7.132,6.321-13.534,13.464-19.025,21.241c-3.051,4.321-2.021,10.297,2.3,13.348
		c1.678,1.185,3.605,1.754,5.515,1.754c3.006,0,5.966-1.413,7.832-4.055c3.122-4.421,6.599-8.595,10.37-12.484
		c5.228,3.993,10.702,7.512,16.366,10.554c-2.669,5.532-4.932,11.259-6.748,17.12c-1.566,5.051,1.26,10.418,6.312,11.983
		c0.945,0.293,1.9,0.433,2.839,0.433c4.087,0,7.871-2.637,9.145-6.744c1.602-5.167,3.618-10.209,6.003-15.073
		c6.162,2.152,12.461,3.803,18.833,4.948c-0.831,6.092-1.215,12.246-1.131,18.393c0.071,5.244,4.345,9.448,9.574,9.448
		c0.044,0,0.088,0,0.132-0.001c5.289-0.071,9.518-4.416,9.447-9.705c-0.073-5.422,0.288-10.849,1.056-16.219
		c0.934,0.021,1.868,0.033,2.802,0.033c5.559,0,11.116-0.377,16.633-1.125c1.093,6.055,2.631,12.028,4.609,17.85
		c1.355,3.986,5.077,6.497,9.067,6.497c1.023,0,2.061-0.166,3.084-0.512c5.007-1.702,7.687-7.142,5.985-12.15
		c-1.742-5.124-3.074-10.389-4.004-15.726c6.19-1.849,12.264-4.197,18.157-7.041c2.906,5.41,6.209,10.607,9.883,15.524
		c1.881,2.517,4.762,3.845,7.68,3.845c1.993,0,4.006-0.621,5.726-1.906c4.237-3.167,5.105-9.169,1.939-13.406
		c-3.239-4.334-6.133-8.928-8.665-13.715c3.917-2.716,7.711-5.687,11.359-8.91c3.963-3.502,4.337-9.555,0.834-13.518
		C225.528,218.563,219.477,218.187,215.511,221.691z"/>
</g>
<g>
</g>
<g>
</g>
<g>
</g>
<g>
</g>
<g>
</g>
<g>
</g>
<g>
</g>
<g>
</g>
<g>
</g>
<g>
</g>
<g>
</g>
<g>
</g>
<g>
</g>
<g>
</g>
<g>
</g>
</svg>
