<?xml version="1.0" encoding="iso-8859-1"?>
<!-- Generator: Adobe Illustrator 19.0.0, SVG Export Plug-In . SVG Version: 6.00 Build 0)  -->
<svg version="1.1" id="Capa_1" xmlns="http://www.w3.org/2000/svg" xmlns:xlink="http://www.w3.org/1999/xlink" x="0px" y="0px"
	 viewBox="0 0 512 512" style="enable-background:new 0 0 512 512;" xml:space="preserve">
<g>
	<g>
		<g>
			<path d="M256,0C114.844,0,0,114.833,0,256s114.844,256,256,256s256-114.833,256-256S397.156,0,256,0z M256,490.667
				C126.604,490.667,21.333,385.396,21.333,256S126.604,21.333,256,21.333S490.667,126.604,490.667,256S385.396,490.667,256,490.667
				z"/>
			<path d="M394.667,170.667c-5.896,0-10.667,4.771-10.667,10.667c0,17.646-19.135,32-42.667,32c-23.531,0-42.667-14.354-42.667-32
				c0-5.896-4.771-10.667-10.667-10.667s-10.667,4.771-10.667,10.667c0,29.417,28.708,53.333,64,53.333
				c35.292,0,64-23.917,64-53.333C405.333,175.438,400.563,170.667,394.667,170.667z"/>
			<path d="M234.667,181.333c0-5.896-4.771-10.667-10.667-10.667s-10.667,4.771-10.667,10.667c0,17.646-19.135,32-42.667,32
				S128,198.979,128,181.333c0-5.896-4.771-10.667-10.667-10.667c-5.896,0-10.667,4.771-10.667,10.667
				c0,29.417,28.708,53.333,64,53.333C205.958,234.667,234.667,210.75,234.667,181.333z"/>
			<path d="M256,320c-35.292,0-64,28.708-64,64c0,35.292,28.708,64,64,64s64-28.708,64-64C320,348.708,291.292,320,256,320z
				 M256,426.667c-23.531,0-42.667-19.146-42.667-42.667c0-23.521,19.135-42.667,42.667-42.667s42.667,19.146,42.667,42.667
				C298.667,407.521,279.531,426.667,256,426.667z"/>
			<path d="M394.667,341.333h-22.74l31.615-47.417c2.177-3.271,2.385-7.479,0.531-10.958c-1.854-3.458-5.469-5.625-9.406-5.625H352
				c-5.896,0-10.667,4.771-10.667,10.667s4.771,10.667,10.667,10.667h22.74l-31.615,47.417c-2.177,3.271-2.385,7.479-0.531,10.958
				c1.854,3.458,5.469,5.625,9.406,5.625h42.667c5.896,0,10.667-4.771,10.667-10.667
				C405.333,346.104,400.563,341.333,394.667,341.333z"/>
			<path d="M458.667,277.333h-4.073l13.615-27.229c1.656-3.313,1.479-7.229-0.469-10.375c-1.948-3.146-5.375-5.063-9.073-5.063
				h-21.333c-5.896,0-10.667,4.771-10.667,10.667c0,5.896,4.771,10.667,10.667,10.667h4.073l-13.615,27.229
				c-1.656,3.313-1.479,7.229,0.469,10.375c1.948,3.146,5.375,5.063,9.073,5.063h21.333c5.896,0,10.667-4.771,10.667-10.667
				S464.563,277.333,458.667,277.333z"/>
		</g>
	</g>
</g>
<g>
</g>
<g>
</g>
<g>
</g>
<g>
</g>
<g>
</g>
<g>
</g>
<g>
</g>
<g>
</g>
<g>
</g>
<g>
</g>
<g>
</g>
<g>
</g>
<g>
</g>
<g>
</g>
<g>
</g>
</svg>
