<svg xmlns="http://www.w3.org/2000/svg" viewBox="0 0 118.77 112.09"><defs><style>.cls-1{fill:#e88aa5;}.cls-2{fill:#89ceee;}.cls-3{fill:#181818;opacity:0.1;}.cls-4{fill:#f3bc87;}.cls-13,.cls-5{fill:none;}.cls-5{stroke:#375882;stroke-linecap:round;stroke-width:3.33px;stroke-dasharray:48.21 4.16;}.cls-12,.cls-5,.cls-7{stroke-miterlimit:10;}.cls-6{fill:#f7f7f7;}.cls-12,.cls-7,.cls-8{fill:#375880;}.cls-12,.cls-7{stroke:#375880;}.cls-7{stroke-width:1.78px;}.cls-10,.cls-12,.cls-14,.cls-15,.cls-16,.cls-7,.cls-8{fill-rule:evenodd;}.cls-10,.cls-9{fill:#e689a3;}.cls-11{fill:#c5dff5;}.cls-12{stroke-width:1.19px;}.cls-14{fill:#88cded;}.cls-15{fill:#c04870;}.cls-16{fill:#e38f94;}</style></defs><title>baby</title><g id="Layer_2" data-name="Layer 2"><g id="Layer_1-2" data-name="Layer 1"><path class="cls-1" d="M84,111.32l-36.3.69-.14-7.48c-.1-5.51,5.4-14.86,14.54-15l8.59-.17c7.9-.14,13,7.76,13.14,13.27Z"/><rect class="cls-2" x="46.3" y="100.03" width="34.04" height="3.32" transform="translate(-1.93 1.22) rotate(-1.09)"/><rect class="cls-2" x="48.66" y="93.38" width="29.06" height="3.32" transform="translate(-1.8 1.22) rotate(-1.09)"/><rect class="cls-2" x="46.43" y="107.5" width="34.05" height="2.49" transform="translate(-2.05 1.22) rotate(-1.09)"/><path class="cls-3" d="M81.19,108.33c-6,.11-2.6,1.57-9.39,1.7L71.17,87.8c7.89-.15,9.75,6.29,9.85,11.8Z"/><line class="cls-4" x1="65.33" y1="79.32" x2="65.47" y2="87.08"/><line class="cls-5" x1="63.25" y1="79.36" x2="63.39" y2="87.12"/><path class="cls-5" d="M81.63,109.7l-36.29.69-.14-7.48c-.11-5.5,5.39-14.85,14.54-15l8.58-.16c7.9-.15,13,7.75,13.14,13.26Z"/><path class="cls-6" d="M92.2,57.05a6.88,6.88,0,0,0-5.85-6.66l.08-10.49C86.29,32.64,75.7,24.62,69.6,22.63S59,20.91,52.81,23C47,24.86,37,32.34,37.16,40.94l.27,10.25a6.85,6.85,0,0,0-1.11,13.29.32.32,0,0,1,.09,0c.81,3.72,3.51,6.24,7.52,7.41,7.8,2.28,15,1.9,18.42,1.83s10.56,0,18-2.54c4.73-1.58,6.85-3,7.88-7.73v0A6.9,6.9,0,0,0,92.2,57.05Z"/><path class="cls-7" d="M86.24,51.38c0-2.58-.11-5.06-.14-7.54,0-1.66.11-3.33,0-5a12.13,12.13,0,0,0-3.44-7C78,26.61,72.48,22.73,65.43,21.49c-5.7-1-11,.36-16.08,2.91-.14.07-.27.16-.41.24-.87.46-1.62.34-2-.32a1.35,1.35,0,0,1,.69-2,50,50,0,0,1,5.7-2.42c10.87-3.49,20.12-.27,28.32,7a21.74,21.74,0,0,1,6.3,8.43,12.7,12.7,0,0,1,.8,4c.09,2.74,0,5.49-.06,8.23a1.74,1.74,0,0,0,1.18,2,7.83,7.83,0,0,1,4.87,6.61,8.3,8.3,0,0,1-3.5,8,2.8,2.8,0,0,0-1,1.32,10,10,0,0,1-6.14,6.64A43.8,43.8,0,0,1,71.94,75.3c-2.47.28-5,.4-7.44.55-1.32.08-1.94-.37-2-1.27s.59-1.37,1.88-1.39A53.11,53.11,0,0,0,81,70.55c.63-.22,1.25-.47,1.88-.7A7.69,7.69,0,0,0,88,63.4a1,1,0,0,1,.49-.68,5.89,5.89,0,0,0,3.55-6.46c-.48-2.7-2.55-4.44-5.58-4.82Z"/><path class="cls-7" d="M37.59,52.16c-.54.11-1.11.19-1.67.33a5.93,5.93,0,0,0-4.37,5.45,5.84,5.84,0,0,0,3.87,5.61A1.74,1.74,0,0,1,36.67,65a8.38,8.38,0,0,0,5.51,5.92A38.87,38.87,0,0,0,52.07,73c1.52.15,3,.21,4.58.28,1,.06,1.51.47,1.52,1.33A1.25,1.25,0,0,1,56.66,76c-3.58-.35-7.17-.66-10.72-1.24A24.11,24.11,0,0,1,40.22,73a10.64,10.64,0,0,1-5.89-6.36,2,2,0,0,0-.85-.92,8.31,8.31,0,0,1-4.56-7.75,8.11,8.11,0,0,1,5.37-7.68c.61-.25.7-.54.68-1.14-.13-3.12-.33-6.25-.24-9.37.11-4.37,2.2-7.92,5-11.1.45-.5.92-1,1.39-1.45.86-.86,1.6-1,2.24-.32s.46,1.34-.34,2.23a45.88,45.88,0,0,0-3.4,4.12c-2.1,3-2.48,6.33-2.26,9.87C37.59,46.06,37.53,49.07,37.59,52.16Z"/><path class="cls-8" d="M64.09,61a1.29,1.29,0,0,1-1.4,1.35,1.37,1.37,0,1,1,0-2.73A1.3,1.3,0,0,1,64.09,61Z"/><path class="cls-9" d="M74.67,67.54A12.28,12.28,0,1,1,50.11,68a4.29,4.29,0,0,1,4.25-4.47c3.89-.07,4.16,2.47,8,2.4,3.38-.06,3.39-2.61,7.56-2.69A4.36,4.36,0,0,1,74.67,67.54Z"/><path class="cls-8" d="M55.64,75.38c.91-.95,1.8-1.81,2.62-2.73a2.92,2.92,0,0,0,.55-1.15,4.74,4.74,0,0,1,7.37-2.74,1.88,1.88,0,0,1,.69.65c.13.3.21.85,0,1a1.82,1.82,0,0,1-1.09.2c-.15,0-.28-.24-.43-.37a3.11,3.11,0,1,0-2.06,5.5,3.05,3.05,0,0,0,3-2.16,5.88,5.88,0,0,0,.18-.93c.12-.86.73-1.17,1.41-.62,1.13,1,2.21,2,3.44,3.1.43-.63,1-1.37,1.47-2.18a9.76,9.76,0,0,0,1.28-5.13,3.32,3.32,0,0,0-3.49-3.49,5.44,5.44,0,0,0-3.49,1.1A6.41,6.41,0,0,1,63,66.91c-.6,0-1.25-.1-1.25-.86s.61-.84,1.24-.79a4.74,4.74,0,0,0,3.25-1.16A7,7,0,0,1,72,62.88a4.65,4.65,0,0,1,3.79,4.55,11.91,11.91,0,0,1-3.25,8.82,1.54,1.54,0,0,0-.43,1.52A8.41,8.41,0,0,1,69,86.56,8.77,8.77,0,0,1,54.8,80a3,3,0,0,1,0-1c.46-1.35-.21-2.2-1-3.15a11.46,11.46,0,0,1-2.9-7.52,4.94,4.94,0,0,1,6-5.25,12.9,12.9,0,0,1,2.68,1c.54.23.82.77.43,1.23a1.28,1.28,0,0,1-1.21.17,5.17,5.17,0,0,0-3.94-.67,3.13,3.13,0,0,0-2.36,3.1C52.49,70.85,53.79,73.92,55.64,75.38Zm12.41-1.2-.24.12a5.23,5.23,0,0,0,.43.89,6.07,6.07,0,0,1,.28,6.91,6,6,0,1,1-9.82-6.72,5.79,5.79,0,0,0,.42-.91l-.24-.11a7,7,0,0,0-.51,10.27,7.2,7.2,0,0,0,10.49-.11A7.06,7.06,0,0,0,68.05,74.18Zm-.33,5.39a12.77,12.77,0,0,1-8.41.08,4.4,4.4,0,0,0,4.46,3.53A4.29,4.29,0,0,0,67.72,79.57ZM59.2,78.26c.81.09,1.49.14,2.17.25a10.6,10.6,0,0,0,6.41-.81L66.85,76a5.09,5.09,0,0,1-6.78.09Z"/><path class="cls-10" d="M68.05,74.18a7.06,7.06,0,0,1,.81,10.34,7.2,7.2,0,0,1-10.49.11,7,7,0,0,1,.51-10.27l.24.11a5.79,5.79,0,0,1-.42.91,6,6,0,1,0,9.82,6.72,6.07,6.07,0,0,0-.28-6.91,5.23,5.23,0,0,1-.43-.89Z"/><path class="cls-10" d="M59.2,78.26l.87-2.14A5.09,5.09,0,0,0,66.85,76l.93,1.67a10.6,10.6,0,0,1-6.41.81C60.69,78.4,60,78.35,59.2,78.26Z"/><path class="cls-11" d="M69.58,10.94A11.23,11.23,0,0,0,59.4,18.26c-.14.34,1.94-.06,2.3-.36a5.19,5.19,0,0,1,3.73-1.15,6.73,6.73,0,0,1,2.68,13,3.88,3.88,0,0,0,.78-2.4,3.92,3.92,0,1,0-6.57,2.94C63.88,32,66.73,33.08,70,33a11,11,0,1,0-.42-22.08Z"/><path class="cls-12" d="M65.91,31.35c.65-.88,1.28-1.64,1.8-2.47a2.82,2.82,0,0,0-.36-3.45,2.89,2.89,0,0,0-3.42-.61c-.14.07-.28.24-.41.23-.4,0-1,0-1.16-.22-.37-.48,0-.93.44-1.26a4.55,4.55,0,0,1,6.83,2.77c.08.34.13.68.19,1.05a5.18,5.18,0,0,0,1.09-5.9c-.12-.26-.37-.51-.37-.76,0-.41,0-1,.27-1.21.44-.37.86,0,1.16.44a7.31,7.31,0,0,1-.19,7.79,8.24,8.24,0,0,1-4.19,3c-.41.15-.8.33-1.45.61a10.64,10.64,0,0,0,6.57.13A9.38,9.38,0,0,0,78,27.46c.34-.53.78-.85,1.33-.51s.36.94,0,1.43a11.61,11.61,0,0,1-16.08,3.36,5.15,5.15,0,0,1-2.55-3.95c0-.56,0-1.18.68-1.26s.88.51,1,1.13C62.65,29.68,64.2,30.49,65.91,31.35Z"/><path class="cls-12" d="M61.39,17.86a7.37,7.37,0,0,1,6.49-1.06,2.17,2.17,0,0,1,1,.39,5.12,5.12,0,0,1,.6,1c-.41.15-.82.45-1.21.42-1.12-.08-2.24-.42-3.36-.43a7.46,7.46,0,0,0-2,.66,15.53,15.53,0,0,1-2.62.74c-1,.11-1.28-.5-.93-1.43A11.48,11.48,0,0,1,70.61,11a11.19,11.19,0,0,1,10.17,8.69,23.83,23.83,0,0,1,.16,4.56c0,.6-.24,1.09-1,1s-.71-.74-.62-1.25a9.31,9.31,0,0,0-1.12-6.46,9.62,9.62,0,0,0-16.78-.06C61.42,17.53,61.43,17.61,61.39,17.86Z"/><rect class="cls-13" x="26.04" y="1.68" width="81.52" height="98.42" transform="translate(-0.96 1.28) rotate(-1.09)"/><path class="cls-12" d="M80.41,54a4.36,4.36,0,0,1-3.16,4.1,4.49,4.49,0,0,1-5-1.93.88.88,0,0,1,.2-1.3c.52-.36.94-.12,1.26.34a2.69,2.69,0,0,0,5-1.35c0-.57.31-1,.92-.92S80.45,53.49,80.41,54Z"/><path class="cls-12" d="M43.53,54.7a4.36,4.36,0,0,0,3.32,4,4.48,4.48,0,0,0,4.92-2.12.87.87,0,0,0-.25-1.29c-.54-.35-1-.08-1.25.38A2.59,2.59,0,0,1,47.4,57a2.64,2.64,0,0,1-2.17-2.5c-.07-.57-.35-1-1-.89S43.47,54.19,43.53,54.7Z"/><path class="cls-14" d="M3,39.47a4.91,4.91,0,0,1,5.28-4.93A5.08,5.08,0,1,1,8,44.7,5,5,0,0,1,3,39.47Zm7.6.16a2.51,2.51,0,0,0-2.4-2.46A2.33,2.33,0,0,0,5.64,39.6a2.37,2.37,0,0,0,2.48,2.49A2.61,2.61,0,0,0,10.56,39.63Z"/><path class="cls-15" d="M22.89,8a8,8,0,0,1,8.57-8,8.24,8.24,0,0,1,8.11,8.31A8.33,8.33,0,0,1,31,16.52,8.06,8.06,0,0,1,22.89,8Zm12.35.25c-.32-2.32-1.53-3.79-3.91-4a3.79,3.79,0,0,0-4.08,4,3.84,3.84,0,0,0,4,4A4.25,4.25,0,0,0,35.24,8.27Z"/><path class="cls-14" d="M116.69,99.93a2.61,2.61,0,0,1-2.44,2.46,2.36,2.36,0,0,1-2.47-2.49,2.33,2.33,0,0,1,2.5-2.44A2.53,2.53,0,0,1,116.69,99.93Z"/><path class="cls-14" d="M18.28,68.38a2.59,2.59,0,0,1-2.43,2.45,2.35,2.35,0,0,1-2.48-2.48,2.32,2.32,0,0,1,2.51-2.43A2.49,2.49,0,0,1,18.28,68.38Z"/><path class="cls-16" d="M8.4,97.87a4.25,4.25,0,0,1-4.12,4.28,4.21,4.21,0,1,1-.13-8.42A4.2,4.2,0,0,1,8.4,97.87Z"/><path class="cls-15" d="M111.6,16.82h4.61a2.55,2.55,0,0,1,2.56,2.6,2.51,2.51,0,0,1-2.59,2.48l-4.58,0c0,1.45,0,2.71,0,4,0,1.83-.67,3.28-2.63,3.18s-2.64-1.47-2.55-3.33c0-1.18,0-2.37,0-3.81-1.39,0-2.48,0-3.57,0-1.92.09-3.46-.42-3.42-2.64s1.69-2.59,3.54-2.51c1,.05,2,0,3.45,0,0-1.51.1-2.9.1-4.18,0-2.16,1.2-2.89,2.57-2.89,1.7,0,2.55,1.11,2.5,2.89C111.56,13.91,111.6,15.19,111.6,16.82Z"/><path class="cls-16" d="M117.79,72c-.38,2.49-1.79,4.05-4.26,4.3a4.14,4.14,0,0,1-4.34-4.35,4.07,4.07,0,0,1,4.39-4.24C116.15,67.92,117.44,69.5,117.79,72Z"/></g></g></svg>