<svg xmlns="http://www.w3.org/2000/svg" viewBox="0 0 66.35 103.91"><defs><style>.cls-1{fill:#e88aa5;}.cls-2{fill:#89ceee;}.cls-3{fill:#fff;}.cls-4{fill:none;stroke:#375882;stroke-linecap:round;stroke-miterlimit:10;stroke-width:3.73px;stroke-dasharray:54.03 4.66;}.cls-5{fill:#375882;}.cls-6{fill:#f3bc87;}.cls-7,.cls-8{fill:#181818;opacity:0.1;}.cls-8{fill-rule:evenodd;}</style></defs><title>caregiver</title><g id="Layer_2" data-name="Layer 2"><g id="Layer_1-2" data-name="Layer 1"><path class="cls-1" d="M57.29,103.91H16.62V95.52C16.62,89.35,23,79,33.23,79h9.62c8.85,0,14.44,9,14.44,15.13Z"/><rect class="cls-2" x="14.92" y="89.7" width="39" height="4"/><rect class="cls-2" x="14.92" y="98.7" width="39" height="4"/><rect class="cls-2" x="16.92" y="81.7" width="34" height="4"/><path class="cls-3" d="M59,58c0,4.49-5,8.13-11.18,8.13H23.63c-6.17,0-11.18-3.64-11.18-8.13V33.25c0-4.49,5-8.13,11.18-8.13H47.85C54,25.12,59,28.76,59,33.25Z"/><path class="cls-4" d="M56.85,58c0,4.49-5,8.13-11.18,8.13H21.45c-6.17,0-11.17-3.64-11.17-8.13V33.25c0-4.49,5-8.13,11.17-8.13H45.67c6.18,0,11.18,3.64,11.18,8.13Z"/><path class="cls-5" d="M25.79,46.85a2.94,2.94,0,1,1-2.94-2.94A2.93,2.93,0,0,1,25.79,46.85Z"/><path class="cls-5" d="M47.38,46.85a2.94,2.94,0,1,1-2.94-2.94A2.93,2.93,0,0,1,47.38,46.85Z"/><path class="cls-5" d="M37,52.09a3.34,3.34,0,1,1-6.68,0Z"/><path class="cls-6" d="M35.82,54.38c0,.47-.87.86-1.94.86s-2-.39-2-.86.87-.85,2-.85S35.82,53.91,35.82,54.38Z"/><path class="cls-2" d="M27.56,21.38a30.42,30.42,0,0,1,22.81-.7c9.57,3.57,16.75,13,15.91,15.36C65.54,38.1,52.61,40.76,46,38.67,33.36,34.73,27.56,21.38,27.56,21.38Z"/><path class="cls-7" d="M29.61,24A21.57,21.57,0,0,0,27,25.51s7.59,12.41,20.61,14.57c5.13.85,13.35-1.4,17.38-3.48A63.63,63.63,0,0,1,29.61,24Z"/><path class="cls-4" d="M25.59,22.28a30.41,30.41,0,0,1,22.81-.7c9.56,3.57,16.74,13,15.9,15.36C63.57,39,50.63,41.66,44,39.57,31.38,35.63,25.59,22.28,25.59,22.28Z"/><path class="cls-2" d="M2.77,38.19a30.44,30.44,0,0,1,14-18c8.86-5.09,20.71-4.58,22-2.44,1.12,1.89-5.1,13.54-11,17.33C16.75,42.26,2.77,38.19,2.77,38.19Z"/><path class="cls-7" d="M6.11,38.31a20.61,20.61,0,0,0-.54,3S20,43.37,29.94,34.72c3.93-3.4,7.45-11.16,8.42-15.59A63.71,63.71,0,0,1,6.11,38.31Z"/><path class="cls-4" d="M2.2,40.29a30.41,30.41,0,0,1,14-18c8.86-5.09,20.71-4.58,22-2.44,1.12,1.88-5.1,13.54-11,17.33C16.18,44.35,2.2,40.29,2.2,40.29Z"/><path class="cls-7" d="M54.19,100.49c-6.76,0-2.95,1.71-10.56,1.71L43.4,77.28c8.85,0,10.79,7.25,10.79,13.43Z"/><line class="cls-6" x1="37.03" y1="67.65" x2="37.03" y2="76.35"/><line class="cls-4" x1="34.7" y1="67.65" x2="34.7" y2="76.35"/><path class="cls-4" d="M54.65,102H14V93.66c0-6.17,6.36-16.54,16.61-16.54h9.62c8.85,0,14.44,9,14.44,15.14Z"/><path class="cls-1" d="M46.85,11a9.16,9.16,0,1,1-9.16-9.16A9.16,9.16,0,0,1,46.85,11Z"/><path class="cls-8" d="M43.4,3.75a11.76,11.76,0,0,1,.18,2A11.9,11.9,0,0,1,31.79,17.52,11.74,11.74,0,0,1,28.38,17a10.06,10.06,0,0,0,17.24-7A9.72,9.72,0,0,0,43.4,3.75Z"/><path class="cls-4" d="M45.49,11a9.16,9.16,0,1,1-9.16-9.16A9.16,9.16,0,0,1,45.49,11Z"/></g></g></svg>