<svg xmlns="http://www.w3.org/2000/svg" viewBox="0 0 50.73 51.63"><defs><style>.cls-1{fill:none;stroke:#c04870;stroke-linecap:round;stroke-miterlimit:10;stroke-width:2.82px;stroke-dasharray:17.96 29.93;}.cls-2,.cls-4{fill:#c04870;}.cls-3{fill:#88cded;}.cls-3,.cls-4,.cls-5{fill-rule:evenodd;}.cls-5{fill:#e38f94;}</style></defs><title>cot</title><g id="Layer_2" data-name="Layer 2"><g id="Layer_1-2" data-name="Layer 1"><path class="cls-1" d="M14.19,23.07a9.28,9.28,0,1,1,9.24,9.32"/><path class="cls-2" d="M29.73,23.24c.32.79.05,1-.62.45l-.33-.28a1.94,1.94,0,0,0-2.39,0l-.34.3c-.65.56-1,.35-.72-.47l.13-.4a2.15,2.15,0,0,0-.86-2.32l-.17-.11c-.73-.46-.62-.81.24-.78l.56,0a1.9,1.9,0,0,0,1.86-1.48l.07-.33c.17-.85.48-.85.68,0l.13.5a1.83,1.83,0,0,0,1.93,1.34l.47-.05c.86-.09,1,.23.26.71l-.34.24a2,2,0,0,0-.7,2.32Z"/><path class="cls-2" d="M13,46.11a1.39,1.39,0,1,0-1.44,2.37c3.41,2,8.93,3.15,15.16,3.15s11.75-1.15,15.15-3.15a1.39,1.39,0,0,0,.49-1.9,1.51,1.51,0,0,0-2-.41V26.53a1.39,1.39,0,0,0-2.77,0v1.92H15.75V26.53a1.38,1.38,0,1,0-2.76,0Zm24.57-3.62H34.15V31.22h3.41Zm-9.58,0V31.22h3.41V42.49Zm-6.06,0V31.22h3.3V42.49ZM19.15,31.22V42.49h-3.4V31.22Zm-3.4,16.11V45.26H37.56v2.1a36,36,0,0,1-10.85,1.51A35.79,35.79,0,0,1,15.75,47.33Z"/><path class="cls-3" d="M4.74,14.43a1.8,1.8,0,0,1,1.93-1.8,1.84,1.84,0,0,1,1.82,1.86,1.88,1.88,0,0,1-1.93,1.85A1.81,1.81,0,0,1,4.74,14.43Zm2.78.06a.92.92,0,0,0-.88-.9.84.84,0,0,0-.92.88.86.86,0,0,0,.9.91A1,1,0,0,0,7.52,14.49Z"/><path class="cls-4" d="M12,2.93A2.92,2.92,0,0,1,15.15,0,3,3,0,1,1,15,6,3,3,0,0,1,12,2.93ZM16.53,3a1.49,1.49,0,0,0-1.42-1.46A1.4,1.4,0,0,0,13.61,3a1.4,1.4,0,0,0,1.48,1.47A1.53,1.53,0,0,0,16.53,3Z"/><path class="cls-3" d="M50,40.18a1,1,0,0,1-.89.9.9.9,0,1,1,0-1.8A.92.92,0,0,1,50,40.18Z"/><path class="cls-3" d="M3,17.68a1,1,0,0,1-.89.9.87.87,0,0,1-.91-.91.85.85,0,0,1,.92-.89A.92.92,0,0,1,3,17.68Z"/><path class="cls-5" d="M3.07,35.77a1.56,1.56,0,0,1-1.51,1.57A1.58,1.58,0,0,1,0,35.82a1.55,1.55,0,0,1,1.52-1.56A1.54,1.54,0,0,1,3.07,35.77Z"/><path class="cls-4" d="M43.35,3.22H45a.93.93,0,0,1,.94.95.92.92,0,0,1-.95.9H43.35c0,.53,0,1,0,1.45,0,.67-.24,1.2-1,1.16s-1-.53-.93-1.21c0-.43,0-.87,0-1.4-.51,0-.91,0-1.31,0-.7,0-1.26-.16-1.24-1s.61-.94,1.29-.91c.37,0,.74,0,1.26,0,0-.55,0-1.06,0-1.53,0-.79.43-1,.94-1s.93.4.91,1C43.33,2.16,43.35,2.63,43.35,3.22Z"/><path class="cls-5" d="M50.73,30a1.66,1.66,0,0,1-1.56,1.57A1.5,1.5,0,0,1,47.59,30a1.48,1.48,0,0,1,1.6-1.55A1.61,1.61,0,0,1,50.73,30Z"/></g></g></svg>