<svg xmlns="http://www.w3.org/2000/svg" viewBox="0 0 72.53 92.51"><defs><style>.cls-1{fill:#e88aa5;}.cls-2{fill:#181818;opacity:0.1;}.cls-3{fill:#f3bc87;}.cls-4{fill:none;stroke:#375882;stroke-linecap:round;stroke-miterlimit:10;stroke-width:3.73px;stroke-dasharray:54.03 4.66;}.cls-5{fill:#fff;}.cls-6{fill:#89ceee;}.cls-7{fill:#375882;}</style></defs><title>father</title><g id="Layer_2" data-name="Layer 2"><g id="Layer_1-2" data-name="Layer 1"><path class="cls-1" d="M58.68,92.51H18V84.13C18,78,24.37,67.6,34.61,67.6h9.63c8.85,0,14.44,9,14.44,15.13Z"/><path class="cls-2" d="M55.57,89.1c-6.75,0-3,1.71-10.55,1.71l-.24-24.92c8.85,0,10.79,7.25,10.79,13.43Z"/><line class="cls-3" x1="38.42" y1="56.26" x2="38.42" y2="64.96"/><line class="cls-4" x1="36.09" y1="56.26" x2="36.09" y2="64.96"/><path class="cls-4" d="M56,90.65H15.36V82.27c0-6.18,6.37-16.54,16.61-16.54H41.6c8.85,0,14.44,9,14.44,15.14Z"/><path class="cls-5" d="M62.23,46.49c0,4.49-5,8.13-11.18,8.13H26.83c-6.17,0-11.17-3.64-11.17-8.13V21.76c0-4.49,5-8.13,11.17-8.13H51.05c6.18,0,11.18,3.64,11.18,8.13Z"/><path class="cls-4" d="M60.06,46.49c0,4.49-5,8.13-11.18,8.13H24.66c-6.17,0-11.18-3.64-11.18-8.13V21.76c0-4.49,5-8.13,11.18-8.13H48.88c6.17,0,11.18,3.64,11.18,8.13Z"/><path class="cls-6" d="M42.86,2.4a30.45,30.45,0,0,1,21,8.82C71.13,18.44,73.75,30,72,31.79c-1.52,1.57-14.39-1.37-19.59-6C42.6,17,42.86,2.4,42.86,2.4Z"/><path class="cls-2" d="M43.62,5.66a20.6,20.6,0,0,0-3,.25s1.76,14.45,12.72,21.81c4.31,2.89,12.72,4.26,17.25,4A63.7,63.7,0,0,1,43.62,5.66Z"/><path class="cls-4" d="M40.68,2.4a30.45,30.45,0,0,1,21,8.82C69,18.44,71.58,30,69.84,31.79c-1.52,1.57-14.4-1.37-19.59-6C40.42,17,40.68,2.4,40.68,2.4Z"/><path class="cls-7" d="M29,35.37a2.94,2.94,0,1,1-2.94-2.94A2.94,2.94,0,0,1,29,35.37Z"/><path class="cls-7" d="M50.59,35.37a2.94,2.94,0,1,1-2.94-2.94A2.94,2.94,0,0,1,50.59,35.37Z"/><path class="cls-7" d="M40.19,40.6a3.34,3.34,0,1,1-6.68,0Z"/><path class="cls-2" d="M52.39,6.4S43.68,27,33.49,32.21C22,38.06,7.67,35.81,6.77,32.39c-.78-3,9.13-20.1,16.67-25.21C37.7-2.51,52.39,6.4,52.39,6.4Z"/><path class="cls-3" d="M39,42.9c0,.47-.87.85-1.94.85s-1.94-.38-1.94-.85S36,42,37.08,42,39,42.42,39,42.9Z"/><path class="cls-6" d="M53.84,4.86s-10,19-21.06,24c-12.46,5.65-27.84,4-28.71.93C3.32,27.11,14.46,11.28,22.7,6.41,38.31-2.82,53.84,4.86,53.84,4.86Z"/><path class="cls-4" d="M51.66,4.86s-9.95,19-21,24c-12.47,5.65-27.85,4-28.71.93C1.14,27.11,12.28,11.28,20.53,6.41,36.14-2.82,51.66,4.86,51.66,4.86Z"/></g></g></svg>