<svg xmlns="http://www.w3.org/2000/svg" viewBox="0 0 216.9 48.02"><defs><style>.cls-1{fill:#5e5e5e;fill-rule:evenodd;}.cls-2{fill:#b93661;}</style></defs><title>Asset 1</title><g id="Layer_2" data-name="Layer 2"><g id="Layer_1-2" data-name="Layer 1"><path class="cls-1" d="M72.38,24a8.64,8.64,0,0,1,1.92,3.89,8.11,8.11,0,0,1-6,9.41,3.07,3.07,0,0,1-1.71-5.9,2,2,0,0,0,1.62-1.7,2,2,0,0,0-2-2.22,3.41,3.41,0,0,1-3.1-4.36,3.19,3.19,0,0,1,1.71-1.82,2.36,2.36,0,0,0,1.37-2,2.22,2.22,0,0,0-1.53-2.24,2.13,2.13,0,0,0-2.57,1.08A6,6,0,0,0,61.6,21c0,3.72,0,7.43,0,11.15a3.44,3.44,0,1,1-6.87.17c0-4.06-.06-8.13,0-12.19.07-4.47,2.44-7.79,6.39-9.06a9.46,9.46,0,0,1,12.36,7.08A7,7,0,0,1,72.38,24Z"/><path class="cls-1" d="M167.6,28.88a8,8,0,0,1-7.66,6.93,8.14,8.14,0,0,1-4.72-1.2c-.32-.21-.49,0-.72.1a8.29,8.29,0,0,1-9.47-.79,7.63,7.63,0,0,1-2.63-5.53c-.13-2.66-.12-5.33,0-8a3.31,3.31,0,0,1,3.47-3.07,3.43,3.43,0,0,1,3.33,3.39c0,2.16,0,4.32,0,6.48a4,4,0,0,0,.08.92,1,1,0,0,0,1.28.89,1.06,1.06,0,0,0,1-1.12c0-.16,0-.31,0-.47V20.83a3.44,3.44,0,0,1,6.85-.55,6.61,6.61,0,0,1,.08,1c0,2.16,0,4.31,0,6.47,0,.83.36,1.25,1.1,1.28a1,1,0,0,0,1.22-1.16c0-2.25,0-4.51,0-6.77a5.26,5.26,0,0,1,.18-1.37,3.43,3.43,0,0,1,6.69,1C167.75,21.93,167.75,27.38,167.6,28.88Z"/><path class="cls-1" d="M128.58,36.35a20,20,0,0,1-3-.42,7.32,7.32,0,0,1-5.53-6.11,13.91,13.91,0,0,1-.24-2.49c0-2,0-4,0-6.07a3.46,3.46,0,0,1,3.39-3.51,3.41,3.41,0,0,1,3.48,3.42c0,2.06,0,4.12,0,6.18,0,.33,0,.66,0,1a1.16,1.16,0,0,0,2.32.06,5.84,5.84,0,0,0,.08-.93V21.11a3.41,3.41,0,0,1,6.82-.2c.05,2.57.09,5.14,0,7.7a74.61,74.61,0,0,1-.71,7.47,13.63,13.63,0,0,1-1.23,3.8c-1.42,3-4.1,4.17-7.2,4.52a20.22,20.22,0,0,1-3.48,0,3.2,3.2,0,0,1-2.91-3.4,3.25,3.25,0,0,1,3.4-3,20.94,20.94,0,0,0,3.35-.21A1.59,1.59,0,0,0,128.58,36.35Z"/><path class="cls-1" d="M98.37,14.34a3.43,3.43,0,0,1,6.73-.89,3.07,3.07,0,0,1,.1.86c0,3.56,0,7.12,0,10.68a11.08,11.08,0,0,0,.23,2.37,2.15,2.15,0,0,0,2.3,1.88A2.51,2.51,0,0,0,109,24.52l-.58-.28a3.58,3.58,0,0,1-1.86-3.76,3.4,3.4,0,0,1,4.72-2.66,9.58,9.58,0,0,1,6,9.27,9.38,9.38,0,0,1-7.67,8.78c-5.21.93-10.61-2.19-11.12-8.18C98.3,25.34,98.35,16.42,98.37,14.34Z"/><path class="cls-1" d="M95.74,32.9a3.42,3.42,0,0,1-6.83,0c0-1.65,0-3.31,0-5a5.35,5.35,0,0,0-.2-1.38,2.29,2.29,0,0,0-2.63-1.78,2.62,2.62,0,0,0-2.23,2.28,2.46,2.46,0,0,0,1.73,2.65A3.38,3.38,0,0,1,88,33.09a3.35,3.35,0,0,1-2.59,3.2,3.48,3.48,0,0,1-1.54,0,9.2,9.2,0,0,1-7-8.88,9.34,9.34,0,0,1,7-9.35c3.6-.76,7-.26,9.6,2.56a8.84,8.84,0,0,1,2.25,5.86C95.78,27.55,95.75,31.83,95.74,32.9Z"/><path class="cls-1" d="M181.48,24.32a8.1,8.1,0,0,1,8.84-7,7.63,7.63,0,0,1,7.05,7.27c.18,2.69.15,5.4.11,8.1a3.42,3.42,0,0,1-6.79.08c-.09-2.24-.05-4.48-.07-6.71a7.25,7.25,0,0,0-.05-.93,1.15,1.15,0,0,0-2.3,0,7.34,7.34,0,0,0-.05.81c0,2.08,0,4.16,0,6.25a3.41,3.41,0,0,1-3.49,3.56,3.46,3.46,0,0,1-3.39-3.62C181.34,31.06,181.32,25.8,181.48,24.32Z"/><path class="cls-1" d="M206.61,23.48c0,3.08,0,6.15,0,9.22a3.19,3.19,0,0,1-6.28.8,4.48,4.48,0,0,1-.12-1.16q0-8.9,0-17.79a3.21,3.21,0,0,1,2.46-3.43,3.18,3.18,0,0,1,3.94,3.09C206.62,17.3,206.61,20.39,206.61,23.48Z"/><path class="cls-1" d="M213.41,35.57a3,3,0,0,1-2.61-1.88c-1.33-3.08-2.61-6.18-3.9-9.28a.91.91,0,0,1,0-.65c.7-1.49,1.39-3,2.15-4.45a3.2,3.2,0,0,1,5.75,2.79c-.24.55-.5,1.1-.79,1.62a1.16,1.16,0,0,0,0,1.1c.9,2.1,1.8,4.21,2.65,6.33A3.23,3.23,0,0,1,213.41,35.57Z"/><path class="cls-1" d="M177.42,26.85c0,2.06,0,4.12,0,6.18a3.2,3.2,0,0,1-6.28.81,4.52,4.52,0,0,1-.12-1.1c0-4,0-7.93,0-11.9a3.2,3.2,0,1,1,6.4-.24C177.44,22.68,177.42,24.76,177.42,26.85Z"/><path class="cls-1" d="M177.67,13.21a3.24,3.24,0,0,1-3.43,3.2,3.2,3.2,0,0,1-3.34-3.22,3.39,3.39,0,0,1,6.77,0Z"/><path class="cls-2" d="M45.72,26.92a5.12,5.12,0,0,0-4.32-5l.21-7.77c0-3.78-3.89-7.9-7.79-10.57a7.56,7.56,0,0,1-7.59,6.9,6.92,6.92,0,0,1-5.27-2,2.62,2.62,0,0,1-.83-1.91,2.71,2.71,0,0,1,5.41,0A2.59,2.59,0,0,1,25,8.19a4.54,4.54,0,0,0,3-4.24A4.53,4.53,0,0,0,26,.28,16.22,16.22,0,0,0,20.56.19a3.89,3.89,0,0,1-1.31.23c-.88.18-1.78.41-2.75.7C12.09,2.45,4.43,7.85,4.43,14.22l.06,7.59a5.06,5.06,0,0,0-1,9.83h.07c.56,2.78,2.56,4.68,5.57,5.6a36.69,36.69,0,0,0,7.34,1.41,8,8,0,0,1-1.61-4.89,3.45,3.45,0,0,1,4.28-3.58,8.54,8.54,0,0,1,1.85.72c.38.16.57.54.29.86a.88.88,0,0,1-.85.1,3.64,3.64,0,0,0-2.74-.52A2.19,2.19,0,0,0,16,33.49a7,7,0,0,0,2.07,5.27,6.69,6.69,0,0,0-.6,2.46c0,.05,0,.49,0,.73a5.81,5.81,0,0,0,3.42,5.39,5.8,5.8,0,0,0,6.42-.63,6,6,0,0,0,2.35-6.17,8.46,8.46,0,0,0-.46-1.89h0a15.77,15.77,0,0,0,.95-1.35,6.92,6.92,0,0,0,1-3.56,2.32,2.32,0,0,0-2.39-2.48,3.77,3.77,0,0,0-2.45.72,4.54,4.54,0,0,1-3,1c-.42,0-.87-.08-.86-.61s.43-.58.87-.54a3.29,3.29,0,0,0,2.29-.76,4.82,4.82,0,0,1,4.06-.78,3.24,3.24,0,0,1,2.59,3.23,8.23,8.23,0,0,1-1.47,5,36.08,36.08,0,0,0,5.79-1.24c3.59-1.1,5.21-2.16,6.06-5.62a0,0,0,0,0,0,0A5.14,5.14,0,0,0,45.72,26.92Zm-30.18-.18a3.51,3.51,0,0,1-2.89,1.64,3.44,3.44,0,0,1-3.37-3c0-.45-.07-.95.55-1s.74.35.8.88A1.92,1.92,0,0,0,12,26.91a1.93,1.93,0,0,0,2.12-.56,2,2,0,0,0,.28-.37c.24-.36.55-.54,1-.28S15.78,26.36,15.54,26.74ZM27.17,45.28A5,5,0,1,1,20.43,38c.05,0,.36.68.42.7-.14.2-.27.4-.41.59-1.74,2.41-.78,5.25,2.08,6A4,4,0,0,0,27,43.59a3.92,3.92,0,0,0-.32-4.41c-.13-.18-.2-.25-.37-.45,0,0,.31-.75.37-.78A5.05,5.05,0,0,1,27.17,45.28Zm-.73-3.47a3,3,0,0,1-2.8,2.47,3.07,3.07,0,0,1-3.07-2.53A8.82,8.82,0,0,0,26.44,41.81Zm-.93-7.51a1.3,1.3,0,0,1,.47.46c.09.21.14.6,0,.69a1.24,1.24,0,0,1-.76.13c-.1,0-.2-.18-.3-.26a2.13,2.13,0,0,0-2.54-.21,2.18,2.18,0,0,0,2.24,3.73,1.86,1.86,0,0,0,.95-1.19,4.27,4.27,0,0,0,.14-.64c.1-.6.52-.81,1-.41h0a4,4,0,0,1-.64,2.26,3.33,3.33,0,0,1-4.22.78,3.57,3.57,0,0,1-1.54-3.48l0,0,0-.06A3.3,3.3,0,0,1,25.51,34.3ZM23.2,29.75a1,1,0,1,1,.06-1.91,1,1,0,1,1-.06,1.91ZM34,28.24a3.42,3.42,0,0,1-3.8-1.55.66.66,0,0,1,.17-1c.41-.27.72-.08,1,.27A2.05,2.05,0,0,0,35.15,25c.05-.44.26-.73.73-.69s.62.43.58.82A3.32,3.32,0,0,1,34,28.24Z"/></g></g></svg>