<svg xmlns="http://www.w3.org/2000/svg" viewBox="0 0 75.26 92.2"><defs><style>.cls-1{fill:#f7e55d;opacity:0.5;}.cls-2{fill:#89ceee;}.cls-3{fill:#181818;opacity:0.1;}.cls-4{fill:none;stroke:#375882;stroke-linecap:round;stroke-miterlimit:10;stroke-width:3.73px;stroke-dasharray:54.03 4.66;}.cls-5{fill:#e88aa5;}.cls-6{fill:#fff;}.cls-7{fill:#375882;}.cls-8{fill:#f3bc87;}</style></defs><title>mother</title><g id="Layer_2" data-name="Layer 2"><g id="Layer_1-2" data-name="Layer 1"><path class="cls-1" d="M33.8,23a2.59,2.59,0,1,1-2.59-2.59A2.58,2.58,0,0,1,33.8,23Z"/><path class="cls-2" d="M56.82,90.34H16.14V82c0-6.18,6.36-16.54,16.61-16.54h9.63c8.85,0,14.44,9,14.44,15.14Z"/><path class="cls-3" d="M58.68,89.72c-6.76,0-3,1.71-10.56,1.71l-.23-24.92c8.85,0,10.79,7.25,10.79,13.43Z"/><line class="cls-4" x1="38.73" y1="55.95" x2="38.73" y2="64.65"/><path class="cls-4" d="M58.68,90.34H18V82c0-6.18,6.37-16.54,16.61-16.54h9.63c8.85,0,14.44,9,14.44,15.14Z"/><path class="cls-5" d="M54.08,5.51S38.5,31.1,42.26,42.78C46.49,55.91,65.89,61.43,69,59.71c2.74-1.5,7.72-21.35,5.84-30.89C71.3,10.77,54.08,5.51,54.08,5.51Z"/><path class="cls-3" d="M73.67,29.13a30.87,30.87,0,0,0-8.93-17.56,87.57,87.57,0,0,1,2.11,37.78,64.85,64.85,0,0,1-2.66,10.47c2.17.6,3.87.66,4.58.2C71.07,58.52,75.25,38.67,73.67,29.13Z"/><path class="cls-4" d="M51.91,5.51S36.32,31.1,40.09,42.78c4.22,13.13,23.63,18.65,26.75,16.93,2.74-1.5,7.71-21.35,5.84-30.89C69.13,10.77,51.91,5.51,51.91,5.51Z"/><path class="cls-5" d="M23.22,6.68S40.4,31.22,37.39,43.13C34,56.5,15,63.24,11.77,61.73,8.94,60.4,2.71,40.91,4,31.27,6.37,13,23.22,6.68,23.22,6.68Z"/><path class="cls-4" d="M22.29,6.68S39.47,31.22,36.46,43.13c-3.38,13.37-22.4,20.11-25.62,18.6C8,60.4,1.78,40.91,3.05,31.27,5.44,13,22.29,6.68,22.29,6.68Z"/><path class="cls-6" d="M62.85,46.49c0,4.49-4.9,8.13-11,8.13H28.16c-6.05,0-10.95-3.64-10.95-8.13V21.76c0-4.49,4.9-8.13,11-8.13H51.9c6.05,0,11,3.64,11,8.13Z"/><path class="cls-4" d="M61.61,46.49c0,4.49-5,8.13-11.18,8.13H26.21C20,54.62,15,51,15,46.49V21.76c0-4.49,5-8.13,11.18-8.13H50.43c6.18,0,11.18,3.64,11.18,8.13Z"/><path class="cls-5" d="M44.41,2.4a29,29,0,0,1,20.36,8.9c7,7.24,9.58,18.81,7.9,20.59-1.46,1.56-13.91-1.43-18.94-6.1C44.21,17,44.41,2.4,44.41,2.4Z"/><path class="cls-4" d="M42.24,2.4a30.42,30.42,0,0,1,21,8.82c7.23,7.22,9.85,18.79,8.11,20.57-1.52,1.57-14.39-1.37-19.59-6C42,17,42.24,2.4,42.24,2.4Z"/><path class="cls-7" d="M28.08,36.22a2.94,2.94,0,1,1-2.94-2.94A2.94,2.94,0,0,1,28.08,36.22Z"/><path class="cls-7" d="M55.09,36a2.94,2.94,0,1,1-2.94-2.94A2.94,2.94,0,0,1,55.09,36Z"/><path class="cls-7" d="M41.74,40.22a3.34,3.34,0,0,1-6.68,0Z"/><path class="cls-3" d="M54.56,6.37S44.32,27.16,32.76,32.59c-13,6.09-29.09,4.16-30,.75C1.93,30.35,13.43,13.06,22,7.78,38.25-2.21,54.56,6.37,54.56,6.37Z"/><path class="cls-8" d="M40.19,42.58c0,.48-.87.86-1.94.86s-2-.38-2-.86.87-.85,2-.85S40.19,42.11,40.19,42.58Z"/><path class="cls-5" d="M52.59,4.86s-10,19-21.05,24c-12.47,5.65-27.85,4-28.71.93C2.08,27.11,13.22,11.28,21.46,6.4,37.07-2.82,52.59,4.86,52.59,4.86Z"/><path class="cls-4" d="M51.66,4.86s-9.95,19-21,24c-12.47,5.65-27.85,4-28.71.93C1.14,27.11,12.28,11.28,20.53,6.4,36.14-2.82,51.66,4.86,51.66,4.86Z"/></g></g></svg>