<svg xmlns="http://www.w3.org/2000/svg" viewBox="0 0 360.07 598.65"><defs><style>.cls-1{fill:#375880;}.cls-1,.cls-12,.cls-5,.cls-6,.cls-7,.cls-8{fill-rule:evenodd;}.cls-2,.cls-6{fill:#87ccec;}.cls-3{fill:#fff;}.cls-4,.cls-5{fill:#e689a3;}.cls-10,.cls-7{fill:#42a6f4;}.cls-8{fill:#e72a63;}.cls-9{fill:#f7f7f7;}.cls-11{fill:none;stroke:#375880;stroke-linecap:round;stroke-miterlimit:10;stroke-width:2.37px;stroke-dasharray:30.85 9.49;}.cls-12{fill:#c54870;}</style></defs><title>Splash Screen</title><g id="Layer_2" data-name="Layer 2"><g id="Layer_1-2" data-name="Layer 1"><path class="cls-1" d="M243.91,249.2c0-5.75,0-11.28,0-16.82,0-3.7.38-7.41.15-11.09-.38-6.17-3.52-11.24-7.39-15.78-10.12-11.89-22.23-20.78-37.9-23.83-12.66-2.47-24.56.32-36,5.79-.32.16-.62.36-.93.52-2,1-3.63.69-4.49-.79a3,3,0,0,1,1.61-4.4,114.1,114.1,0,0,1,12.83-5.15c24.39-7.31,44.87.26,62.84,16.92,5.84,5.42,11,11.43,13.7,19.06a29,29,0,0,1,1.61,9c.1,6.11-.23,12.23-.49,18.35-.09,2.13.2,3.45,2.56,4.52a17.48,17.48,0,0,1,10.58,15c.72,7.37-2.11,13.31-8.16,17.71a6.26,6.26,0,0,0-2.19,2.88c-2.29,7.16-7.05,11.86-14,14.57A98.33,98.33,0,0,1,211,301.94c-5.52.5-11.08.68-16.62.9-3,.12-4.3-.9-4.32-2.91s1.37-3,4.26-3c12.59.06,25-1.33,37-5.18,1.42-.46,2.81-1,4.21-1.49,6.77-2.36,10.53-7.2,11.78-14.16a2.3,2.3,0,0,1,1.14-1.5,13.1,13.1,0,0,0,8.17-14.25c-.94-6-5.48-10-12.22-11A3.66,3.66,0,0,1,243.91,249.2Z"/><path class="cls-1" d="M135.4,248.87c-1.22.22-2.5.37-3.74.69a13.19,13.19,0,0,0-10,11.95,13,13,0,0,0,8.39,12.68,3.93,3.93,0,0,1,2.73,3.27c1.54,6.63,5.86,10.93,12,13.43,7,2.85,14.46,4.18,21.95,5.1,3.39.42,6.8.6,10.21.85,2.25.16,3.35,1.11,3.34,3a2.81,2.81,0,0,1-3.43,2.89c-8-.94-16-1.78-23.84-3.22a53.58,53.58,0,0,1-12.7-4.18,23.68,23.68,0,0,1-12.86-14.41,4.38,4.38,0,0,0-1.85-2.1c-6.65-3.95-10.18-9.85-9.84-17.48.37-8.11,4.68-13.88,12.31-16.9,1.35-.54,1.57-1.17,1.55-2.5-.15-7-.46-14-.15-20.92.44-9.72,5.26-17.56,11.7-24.52,1-1.09,2.1-2.14,3.17-3.17,1.95-1.89,3.6-2.08,5-.64s1,3-.84,5a107.78,107.78,0,0,0-7.77,9.05c-4.79,6.51-5.8,14-5.44,21.9C135.64,235.28,135.4,242,135.4,248.87Z"/><path class="cls-1" d="M157.21,268.2a11,11,0,0,1-10.76-9.62c-.15-1.44-.22-3,1.75-3.29s2.38,1.13,2.56,2.81a6.16,6.16,0,0,0,4.48,5.41c2.65.93,4.87.07,6.78-1.79a6.89,6.89,0,0,0,.9-1.19c.77-1.16,1.75-1.73,3.05-.9s1.26,2.11.49,3.33A11.14,11.14,0,0,1,157.21,268.2Z"/><path class="cls-1" d="M233.32,257.87a10.68,10.68,0,0,1-7.94,9.9c-4.8,1.18-10-.95-12.15-5-.68-1.25-.65-2.34.56-3.16s2.31-.25,3.07.87c1.71,2.53,4,3.88,7.08,3.17,3.24-.75,4.88-3,5.21-6.23.14-1.4.81-2.33,2.31-2.21C233.16,255.39,233.43,256.62,233.32,257.87Z"/><path class="cls-1" d="M194.12,269.61a2.89,2.89,0,0,1-3.18,2.95,3.14,3.14,0,0,1-3-3,3.18,3.18,0,0,1,3.19-3.07A2.91,2.91,0,0,1,194.12,269.61Z"/><path class="cls-2" d="M288.12,376.61c-7-34.94-57.15-67.39-91.78-67.39-45.37,0-80.76,27.95-99.68,66C132.43,378.5,295.89,374.24,288.12,376.61Z"/><path class="cls-3" d="M310.25,407.4c.25-2.6.39-5.23.39-7.89,0-44.85-35.29-77.86-80.14-77.86-22.17,0-40.95,5.69-55.6,20.08A53.91,53.91,0,0,0,86,372,66.19,66.19,0,0,0,38.12,475.53c-.73,0-1.46-.11-2.2-.11C11.8,475.42,0,495.19,0,519.32v79.33H360s.07-99.75.07-112.3C360.07,449.78,343,418.59,310.25,407.4Z"/><path class="cls-2" d="M103.32,329.05c2.65,6.26-2,14.19-10.3,17.73s-17.26,1.34-19.91-4.92,2-14.19,10.3-17.73S100.67,322.8,103.32,329.05Z"/><path class="cls-2" d="M280.53,319c-2.48,6.33-11.32,8.79-19.76,5.49S247.5,313.34,250,307s11.32-8.78,19.76-5.48S283,312.64,280.53,319Z"/><path class="cls-1" d="M269.67,302.06a18.71,18.71,0,0,1,8.7,6.92c.41.62.12,1.7.15,2.58-.81-.3-1.94-.34-2.39-.92a18.28,18.28,0,0,0-14.68-7.38c-4.23-.09-7.77,1.37-10.08,5.22-.3.49-1.3.57-2,.84-.13-.74-.59-1.64-.33-2.21,1.65-3.66,4.74-5.54,8.53-6.38A19.51,19.51,0,0,1,269.67,302.06Z"/><path class="cls-1" d="M259.38,326.7a25,25,0,0,1-8.48-6.95c-.69-.94-1.82-2-.36-3.08s2,.4,2.65,1.26a17.69,17.69,0,0,0,16.27,7,9.74,9.74,0,0,0,8-4.95c.33-.57,1.39-.73,2.12-1.08.09.8.53,1.76.24,2.38-2.26,4.84-6.57,6.56-11.49,6.64C265.37,327.93,262.37,327.13,259.38,326.7Z"/><path class="cls-1" d="M234.08,325.28a48.56,48.56,0,0,1,16.79,3.59,134.24,134.24,0,0,0-14.77-9.3c-11.53-6.26-23.71-10.9-36.88-11.9a96.26,96.26,0,0,0-45.79,7.92c-2.36,1-3.13,2.45-2.33,4.24s2.34,2.1,4.71,1.27c5.3-1.84,10.56-3.9,16-5.22,10.5-2.54,21.17-3.47,31.94-1.63A95.79,95.79,0,0,1,234.08,325.28Z"/><path class="cls-4" d="M217.42,284.76a27.39,27.39,0,0,1-54.78,0,9.58,9.58,0,0,1,9.67-9.8c8.67,0,9.17,5.7,17.73,5.7,7.55,0,7.68-5.69,17-5.69C213.11,275,217.42,279.08,217.42,284.76Z"/><path class="cls-1" d="M174.65,301.42c2.08-2.06,4.09-4,6-6a6.38,6.38,0,0,0,1.28-2.53,10.57,10.57,0,0,1,16.55-5.8,4.3,4.3,0,0,1,1.52,1.47c.27.67.43,1.92.06,2.22a4,4,0,0,1-2.44.4c-.32,0-.61-.55-.94-.83a6.9,6.9,0,1,0,2.07,7.48,12.19,12.19,0,0,0,.43-2.08c.32-1.91,1.69-2.57,3.17-1.31,2.51,2.16,4.86,4.51,7.55,7,1-1.37,2.33-3,3.38-4.79a21.83,21.83,0,0,0,3.06-11.39c0-4.73-2.86-7.71-7.63-7.92a12.1,12.1,0,0,0-7.83,2.3,14.43,14.43,0,0,1-9.52,3.15c-1.34-.08-2.77-.27-2.75-2s1.39-1.85,2.79-1.72c2.8.27,5.1-.89,7.31-2.45a15.52,15.52,0,0,1,13-2.47,10.35,10.35,0,0,1,8.27,10.3,26.68,26.68,0,0,1-7.62,19.53,3.39,3.39,0,0,0-1,3.37c1.44,7.89-.84,14.59-7.24,19.47a18.56,18.56,0,0,1-20.51,2c-7-3.44-10.73-9.31-10.94-17.23a6.68,6.68,0,0,1,.09-2.33c1.08-3-.37-4.91-2.22-7.07a25.49,25.49,0,0,1-6.13-16.88c-.06-7.83,5.94-12.93,13.67-11.45a28.4,28.4,0,0,1,5.92,2.29c1.21.54,1.8,1.74.92,2.76a2.89,2.89,0,0,1-2.71.32c-2.79-1.47-5.58-2.52-8.76-1.66a7,7,0,0,0-5.39,6.82C167.84,291.19,170.6,298.1,174.65,301.42Zm27.72-2.14-.54.25a12.21,12.21,0,0,0,.94,2,13.55,13.55,0,0,1,.32,15.42,13.27,13.27,0,1,1-21.61-15.39,13,13,0,0,0,1-2l-.53-.25c-7.05,5.4-7.78,16-1.57,22.87a16,16,0,0,0,23.38.21C210.11,315.48,209.48,304.9,202.37,299.28Zm-1,12a28.33,28.33,0,0,1-18.76-.18c1.35,5.15,5.18,8.24,9.8,8.06A9.57,9.57,0,0,0,201.42,311.27ZM182.48,308c1.79.24,3.32.37,4.82.66a23.56,23.56,0,0,0,14.32-1.53c-.72-1.37-1.33-2.53-2-3.76-5.06,3.79-9.95,3.79-15.12-.11C183.75,305,183.06,306.65,182.48,308Z"/><path class="cls-5" d="M202.37,299.28c7.11,5.62,7.74,16.2,1.37,23.09a16,16,0,0,1-23.38-.21c-6.21-6.91-5.48-17.47,1.57-22.87l.53.25a13,13,0,0,1-1,2A13.27,13.27,0,1,0,203.09,317a13.55,13.55,0,0,0-.32-15.42,12.21,12.21,0,0,1-.94-2Z"/><path class="cls-6" d="M201.42,311.27a9.57,9.57,0,0,1-9,7.88c-4.62.18-8.45-2.91-9.8-8.06A28.33,28.33,0,0,0,201.42,311.27Z"/><path class="cls-5" d="M182.48,308c.58-1.34,1.27-3,2-4.74,5.17,3.9,10.06,3.9,15.12.11.66,1.23,1.27,2.39,2,3.76a23.56,23.56,0,0,1-14.32,1.53C185.8,308.36,184.27,308.23,182.48,308Z"/><path class="cls-7" d="M50.49,53.85a4.73,4.73,0,1,1,.15-9.46,4.76,4.76,0,0,1,4.64,4.82A4.7,4.7,0,0,1,50.49,53.85Z"/><path class="cls-7" d="M316.11,319.47a4.73,4.73,0,1,1,.16-9.46,4.77,4.77,0,0,1,4.64,4.82A4.71,4.71,0,0,1,316.11,319.47Z"/><path class="cls-7" d="M145,100.64a2.93,2.93,0,0,1-2.75,2.77,2.67,2.67,0,0,1-2.8-2.8,2.63,2.63,0,0,1,2.83-2.74A2.83,2.83,0,0,1,145,100.64Z"/><path class="cls-7" d="M241.76,111.66c2-.06,3.46,1.18,3.37,2.7a2.73,2.73,0,0,1-2.67,2.78,2.7,2.7,0,0,1-2.88-2.75C239.66,112.77,240.52,111.78,241.76,111.66Z"/><path class="cls-8" d="M300.79,254.46c2-.06,3.45,1.18,3.37,2.7a2.73,2.73,0,0,1-2.67,2.78,2.69,2.69,0,0,1-2.88-2.75C298.69,255.57,299.55,254.58,300.79,254.46Z"/><path class="cls-8" d="M65.47,171.14c2-.07,3.45,1.18,3.37,2.69a2.74,2.74,0,0,1-2.67,2.79,2.7,2.7,0,0,1-2.88-2.75C63.37,172.25,64.23,171.26,65.47,171.14Z"/><path class="cls-8" d="M121.16,0c2-.06,3.45,1.18,3.36,2.7a2.72,2.72,0,0,1-2.66,2.78A2.69,2.69,0,0,1,119,2.74C119.06,1.11,119.92.12,121.16,0Z"/><path class="cls-8" d="M254.09,9.45c2-.06,3.46,1.18,3.37,2.7a2.78,2.78,0,0,1-5.55,0C252,10.56,252.85,9.57,254.09,9.45Z"/><path class="cls-8" d="M318.29,5.64c2-.06,3.46,1.18,3.37,2.7A2.73,2.73,0,0,1,319,11.12a2.69,2.69,0,0,1-2.87-2.75C316.19,6.75,317.05,5.76,318.29,5.64Z"/><path class="cls-8" d="M27.44,339.88a2.75,2.75,0,0,1-2.75,2.71,2.89,2.89,0,0,1-2.81-2.91,2.78,2.78,0,1,1,5.56.2Z"/><path class="cls-1" d="M87.51,349.13c-4.09.08-7.8-.92-10.65-4a2.7,2.7,0,0,1-.47-2.46c.72-1.08,1.66-.48,2.47.32,3.06,3,6.83,3.61,10.88,3,5.49-.83,10-3.39,12.82-8.26,3.45-5.92.45-12.05-6.35-13-7.09-1-12.85,1.52-17.25,7.12-.75,1-1.46,2.07-2.69,1.18s-.46-2.05.25-3c5.15-6.69,12-9.4,20.28-8.26,4.45.62,8,3,9.58,7.5,1.66,4.9,0,9.14-3.22,12.79A20.56,20.56,0,0,1,87.51,349.13Z"/><path class="cls-8" d="M322.25,151.8a4.79,4.79,0,0,1-4.65,4.82,4.74,4.74,0,1,1-.14-9.48A4.73,4.73,0,0,1,322.25,151.8Z"/><path class="cls-1" d="M311.85,400a2.73,2.73,0,0,1,0,.85c-1.26,4.67,1.15,6.54,5.23,8.18,8.59,3.46,16.05,8.85,22.83,15.15a13.44,13.44,0,0,1,1.49,1.53,2.76,2.76,0,0,1-.07,3.72,2.92,2.92,0,0,1-3.87.56,5.84,5.84,0,0,1-1.31-1.08A76.91,76.91,0,0,0,307,411.35c-1.2-.4-1.66-.88-1.53-2.25,2.13-22-3.9-41.57-18.45-58.25-12.94-14.83-29.43-23.24-49-25.56a74.89,74.89,0,0,0-30.58,2.91c-2.68.8-5-1.05-4.13-3.4a4.65,4.65,0,0,1,2.91-2.38,116,116,0,0,1,15-3c17.32-1.79,33.78,1.39,48.87,10.15,22.85,13.28,36.51,33.06,40.81,59.21.31,1.89.6,3.79.73,5.7s0,3.7,0,5.55Z"/><path class="cls-1" d="M173.88,340.13c5.42-3.68,10.6-7.29,15.91-10.7a4.23,4.23,0,0,1,3.5-.19c.72.34,1.22,1.82,1.25,2.82a3,3,0,0,1-1.39,2.16,85.49,85.49,0,0,0-18.1,13.83,4,4,0,0,1-.64.41c-14.72-13.24-31.67-18-50.67-11.62S94,357.2,90.18,376.8A65,65,0,0,0,67.05,383a2.83,2.83,0,0,1-4.13-1.33c-.76-1.57-.22-3.1,1.62-4a60.3,60.3,0,0,1,17.76-5.76c2.14-.32,3.19-1,3.81-3.3,5.75-21.09,24.37-37.27,45.71-39.87a55.35,55.35,0,0,1,41,10.72C173.3,339.76,173.78,340.06,173.88,340.13Z"/><path class="cls-1" d="M46.66,477.8h-8A39.58,39.58,0,0,0,.46,508.54c-.12.56-.24-10.78-.24-15.13C6.87,483,18,474.85,30,472.73c1.81-.31,3.62-.59,5.35-.87-1.74-4.16-3.81-8.1-5.06-12.28Q17.89,418,49.21,388c2.4-2.32,4.08-2.53,5.52-1s1.08,3.1-1.54,5.51C41.26,403.38,34.38,416.85,33,433c-1.33,15.25,2.76,29,11.52,41.41q1.1,1.57,2.16,3.18C46.7,477.72,46.67,477.89,46.66,477.8Z"/><path class="cls-9" d="M208.48,158.33c-10.51,0-19.22,6.69-23,15.87-.32.78,4.34,0,5.15-.71,2.48-2.05,4.9-2.4,8.37-2.4a15,15,0,0,1,5.43,29,8.72,8.72,0,1,0-12.94,1c3.39,4.08,9.72,6.51,17,6.51a24.62,24.62,0,1,0,0-49.23Z"/><path class="cls-1" d="M199.42,203.68c1.49-1.93,2.92-3.62,4.13-5.44a6.3,6.3,0,0,0-.65-7.7,6.49,6.49,0,0,0-7.61-1.51c-.32.15-.63.52-.92.5-.9-.08-2.19,0-2.59-.53-.8-1.09-.07-2.09,1-2.8,5.69-3.65,13.8-.19,15.14,6.47.15.75.24,1.52.37,2.34,3.49-2.82,4.61-8.46,2.67-13.11-.25-.59-.81-1.15-.8-1.71,0-.92.09-2.22.67-2.68,1-.8,1.91,0,2.56,1,3.14,5,2.8,12.31-.75,17.35-2.37,3.37-5.71,5.25-9.46,6.57-.92.33-1.81.72-3.27,1.31a23.69,23.69,0,0,0,14.65.58,21,21,0,0,0,11.92-8.83c.77-1.18,1.76-1.88,3-1.07s.76,2.09,0,3.17c-8.75,13.21-26.15,13.93-36,6.82-3-2.17-5.35-4.92-5.52-8.92-.06-1.26-.05-2.64,1.57-2.79s1.94,1.17,2.1,2.56C192.22,199.81,195.66,201.69,199.42,203.68Z"/><path class="cls-1" d="M189.92,173.41c4.65-3.37,9.51-3.32,14.51-2.09a4.6,4.6,0,0,1,2.12.92,9.72,9.72,0,0,1,1.29,2.36c-.9.31-1.84,1-2.7.88-2.5-.24-5-1-7.47-1.11-1.52,0-3,.93-4.59,1.38a33.09,33.09,0,0,1-5.86,1.54c-2.13.21-2.84-1.15-2-3.22,3.93-10,14.61-16.48,25.57-15.61s20.41,9.18,22.33,19.81c.59,3.29.18,6.76.16,10.16,0,1.35-.6,2.44-2.19,2.23-1.78-.22-1.56-1.66-1.33-2.81a20.73,20.73,0,0,0-2.23-14.45c-4-7.22-10.33-11.17-18.57-11.35s-14.42,3.69-18.84,10.52C190,172.68,190,172.84,189.92,173.41Z"/><path class="cls-10" d="M236.05,77.18A15.28,15.28,0,0,1,223.16,53.7a16.64,16.64,0,1,0,19.78,21.82A15.07,15.07,0,0,1,236.05,77.18Z"/><path class="cls-11" d="M239.61,76a15.27,15.27,0,0,1-12.89-23.47A16.64,16.64,0,1,0,246.5,74.34,15.19,15.19,0,0,1,239.61,76Z"/><path class="cls-12" d="M124.84,436.15a16.55,16.55,0,0,1,3.73,7.54A15.75,15.75,0,0,1,117,462a6,6,0,0,1-3.32-11.45c1.68-.55,2.91-1.46,3.14-3.29.3-2.44-1.36-4.22-3.94-4.32a6.6,6.6,0,0,1-6-8.46,6.21,6.21,0,0,1,3.31-3.53,4.54,4.54,0,0,0,2.66-3.8,4.33,4.33,0,0,0-3-4.33,4.12,4.12,0,0,0-5,2.09,11.7,11.7,0,0,0-1,5.51c0,7.2,0,14.41,0,21.61a6.66,6.66,0,1,1-13.32.34c0-7.88-.11-15.77,0-23.65.14-8.67,4.73-15.11,12.39-17.58,11.32-3.65,22.22,3.64,24,13.75C127.67,428.74,127.63,432.24,124.84,436.15Z"/><path class="cls-7" d="M190,502.36c-.76,7.37-7.45,13.29-14.85,13.45a15.77,15.77,0,0,1-9.16-2.34c-.61-.4-.95-.06-1.39.2a16.1,16.1,0,0,1-18.37-1.53,14.73,14.73,0,0,1-5.1-10.73c-.26-5.16-.24-10.33-.07-15.49a6.43,6.43,0,0,1,6.74-6,6.67,6.67,0,0,1,6.46,6.58c0,4.19,0,8.37,0,12.56a8.23,8.23,0,0,0,.16,1.79,2,2,0,0,0,2.48,1.73,2.06,2.06,0,0,0,2-2.18c0-.3,0-.6,0-.9V486.75a6.68,6.68,0,0,1,13.29-1.06,13.54,13.54,0,0,1,.16,1.91c0,4.18,0,8.37,0,12.56,0,1.61.7,2.42,2.13,2.47a2,2,0,0,0,2.36-2.24c.09-4.37,0-8.75.09-13.13a9.47,9.47,0,0,1,.34-2.66,6.65,6.65,0,0,1,13,1.94C190.3,488.88,190.31,499.46,190,502.36Z"/><path class="cls-12" d="M233.85,460.07a42,42,0,0,1-5.71-.81c-6-1.68-9.56-5.77-10.74-11.86a27.83,27.83,0,0,1-.46-4.83c-.06-3.92,0-7.84,0-11.77a6.7,6.7,0,0,1,6.58-6.8,6.61,6.61,0,0,1,6.74,6.61c.07,4,0,8,0,12,0,.64,0,1.28.09,1.92a2.26,2.26,0,0,0,4.51.11,13.52,13.52,0,0,0,.15-1.8c0-4.11,0-8.22,0-12.33a6.62,6.62,0,0,1,13.22-.39c.1,5,.19,10,0,14.94a143.28,143.28,0,0,1-1.38,14.48,26.48,26.48,0,0,1-2.38,7.37c-2.75,5.83-7.95,8.08-14,8.77a39.13,39.13,0,0,1-6.76,0,6.22,6.22,0,0,1-5.64-6.6,6.31,6.31,0,0,1,6.6-5.78,39.36,39.36,0,0,0,6.5-.42A3.07,3.07,0,0,0,233.85,460.07Z"/><path class="cls-12" d="M175.25,417.37a6.66,6.66,0,0,1,13.07-1.72,6.2,6.2,0,0,1,.18,1.67c0,6.9,0,13.8,0,20.71a23.48,23.48,0,0,0,.43,4.59,4.19,4.19,0,0,0,4.47,3.66,4.87,4.87,0,0,0,2.5-9.15c-.36-.21-.75-.36-1.11-.56a6.81,6.81,0,0,1,5.54-12.45,18.57,18.57,0,0,1,11.61,18,18.2,18.2,0,0,1-14.87,17c-10.11,1.8-20.58-4.26-21.58-15.87C175.13,438.71,175.22,421.41,175.25,417.37Z"/><path class="cls-12" d="M170.16,453.38a6.63,6.63,0,0,1-13.25.05c0-3.21,0-6.41,0-9.62a11,11,0,0,0-.38-2.67,4.47,4.47,0,0,0-5.1-3.47,5.1,5.1,0,0,0-4.33,4.43,4.79,4.79,0,0,0,3.35,5.15,6.59,6.59,0,0,1-.36,12.7,6.9,6.9,0,0,1-3,0,17.85,17.85,0,0,1-13.53-17.22c-.27-9.64,6.78-16.69,13.62-18.14s13.47-.51,18.62,5c3,3.16,4.15,7.12,4.35,11.37C170.23,443,170.18,451.3,170.16,453.38Z"/><path class="cls-7" d="M216.93,493.52c.86-8.29,8.89-14.34,17.15-13.5,6.69.68,13.13,5.53,13.68,14.11.34,5.22.29,10.47.21,15.71-.06,3.3-3.15,5.95-6.53,6a6.42,6.42,0,0,1-6.63-5.83c-.19-4.33-.1-8.67-.14-13a17.93,17.93,0,0,0-.09-1.8,2.25,2.25,0,0,0-4.48,0,14.05,14.05,0,0,0-.08,1.58c0,4,0,8.08,0,12.12a6.6,6.6,0,0,1-6.77,6.91,6.7,6.7,0,0,1-6.57-7C216.67,506.59,216.63,496.39,216.93,493.52Z"/><path class="cls-7" d="M265.68,491.9c0,6,0,11.92,0,17.88a6.19,6.19,0,0,1-12.19,1.54,9.31,9.31,0,0,1-.23-2.24q0-17.25,0-34.51c0-3.52,1.77-5.95,4.78-6.66a6.17,6.17,0,0,1,7.65,6C265.7,479.9,265.68,485.9,265.68,491.9Z"/><path class="cls-7" d="M278.87,515.34a5.79,5.79,0,0,1-5.07-3.64c-2.57-6-5.06-12-7.55-18a1.82,1.82,0,0,1,0-1.26c1.36-2.9,2.7-5.8,4.18-8.64a6.2,6.2,0,0,1,11.14,5.41c-.46,1.07-1,2.13-1.52,3.15a2.21,2.21,0,0,0-.06,2.13c1.74,4.08,3.49,8.16,5.15,12.28S283.88,515.34,278.87,515.34Z"/><path class="cls-7" d="M209.07,498.42c0,4,0,8,0,12A6.2,6.2,0,0,1,196.88,512a8.44,8.44,0,0,1-.24-2.13c0-7.69,0-15.39,0-23.08,0-3.85,2.57-6.58,6.1-6.62a6.18,6.18,0,0,1,6.32,6.16C209.09,490.35,209.07,494.38,209.07,498.42Z"/><path class="cls-7" d="M209.54,472a6.24,6.24,0,0,1-6.64,6.2c-3.8-.07-6.48-2.65-6.49-6.24a6.57,6.57,0,0,1,13.13,0Z"/></g></g></svg>