<?xml version="1.0" encoding="iso-8859-1"?>
<!-- Generator: Adobe Illustrator 19.0.0, SVG Export Plug-In . SVG Version: 6.00 Build 0)  -->
<svg version="1.1" id="Layer_1" xmlns="http://www.w3.org/2000/svg" xmlns:xlink="http://www.w3.org/1999/xlink" x="0px" y="0px"
	 viewBox="0 0 489.753 489.753" style="enable-background:new 0 0 489.753 489.753;" xml:space="preserve">
<g id="XMLID_827_">
	<g>
		<g>
			<path d="M473.551,184.591v30.318H16.204v-30.318H0.55v144.754v7.827v48.248c0,29.411,19.232,54.401,45.774,63.094v41.239h15.654
				v-38.152c1.639,0.122,3.288,0.204,4.957,0.204h355.883c1.669,0,3.319-0.083,4.957-0.204v38.152h15.654v-41.239
				c26.543-8.693,45.774-33.683,45.774-63.094v-48.248v-7.827V184.591H473.551z M359.511,230.563h45.378v98.782h-45.378V230.563z
				 M290.85,230.563h53.007v98.782H290.85V230.563z M222.189,230.563h53.006v98.782h-53.006V230.563z M153.527,230.563h53.007
				v98.782h-53.007V230.563z M84.866,230.563h53.007v98.782H84.866V230.563z M16.204,230.563h53.007v98.782H16.204V230.563z
				 M473.551,385.42c0,27.974-22.758,50.732-50.732,50.732H66.936c-27.974,0-50.732-22.758-50.732-50.732V345h457.347V385.42z
				 M473.551,329.345h-53.007v-98.782h53.007V329.345z"/>
			<path d="M85.751,146.552c0,12.694,10.327,23.021,23.021,23.021c12.694,0,23.021-10.327,23.021-23.021
				c0-9.955-6.352-18.452-15.216-21.657v-23.794h45.253v23.794c-8.863,3.204-15.216,11.702-15.216,21.657
				c0,12.694,10.327,23.021,23.021,23.021c12.694,0,23.021-10.327,23.021-23.021c0.002-9.956-6.35-18.453-15.214-21.657v-23.794
				h15.018V85.49h-45.45V0h-15.611v85.49h-45.45v15.611h15.018v23.794C92.103,128.099,85.751,136.597,85.751,146.552z"/>
		</g>
	</g>
</g>
<g>
</g>
<g>
</g>
<g>
</g>
<g>
</g>
<g>
</g>
<g>
</g>
<g>
</g>
<g>
</g>
<g>
</g>
<g>
</g>
<g>
</g>
<g>
</g>
<g>
</g>
<g>
</g>
<g>
</g>
</svg>
